<svg width="0" height="0" class="hidden i-icon">
<symbol xmlns="http://www.w3.org/2000/svg" viewBox="0 0 24 24" id="ic_max">
  <path d="M18.0002 6.00024L12.0002 12.0002" stroke="white" stroke-width="1.5" stroke-linecap="round" stroke-linejoin="round" />
  <path d="M13.5002 6.00024H18.0002V10.5002" stroke="white" stroke-width="1.5" stroke-linecap="round" stroke-linejoin="round" />
  <path d="M7 17L13 11" stroke="white" stroke-width="1.5" stroke-linecap="round" stroke-linejoin="round" />
  <path d="M11.5 17H7V12.5" stroke="white" stroke-width="1.5" stroke-linecap="round" stroke-linejoin="round" />
</symbol>

  <symbol xmlns="http://www.w3.org/2000/svg" viewBox="0 0 20 20" id="ic_garage">
    <path d="M7.49854 12.501H12.5006" stroke-width="1.5" stroke-linecap="round" stroke-linejoin="round"></path>
    <path d="M7.49854 15.0021H12.5006" stroke-width="1.5" stroke-linecap="round" stroke-linejoin="round"></path>
    <path d="M2.49658 17.5031V8.36015C2.49658 7.75466 2.8251 7.19684 3.35444 6.90287L9.59537 3.4356C9.8471 3.2958 10.1531 3.2958 10.4049 3.4356L16.645 6.90204C17.1746 7.19615 17.503 7.75436 17.5028 8.36015V17.5031" stroke-width="1.5" stroke-linecap="round" stroke-linejoin="round"></path>
    <path d="M18.3367 17.5031H1.66309" stroke-width="1.5" stroke-linecap="round" stroke-linejoin="round"></path>
    <path d="M4.99805 17.5031V10.8337C4.99805 10.3732 5.3713 9.99998 5.83173 9.99998H14.1685C14.629 9.99998 15.0022 10.3732 15.0022 10.8337V17.5031" stroke-width="1.5" stroke-linecap="round" stroke-linejoin="round"></path>
    <path d="M8.33252 7.49898H11.6672" stroke-width="1.5" stroke-linecap="round" stroke-linejoin="round"></path>
  </symbol>
  <symbol xmlns="http://www.w3.org/2000/svg" viewBox="0 0 24 24" id="ic_home">
    <path fill-rule="evenodd" clip-rule="evenodd" d="M9.5 20.5V16C9.5 14.619 10.619 13.5 12 13.5V13.5C13.381 13.5 14.5 14.619 14.5 16V20.5H20V11.914C20 11.384 19.789 10.875 19.414 10.5L12.707 3.79301C12.316 3.40201 11.683 3.40201 11.293 3.79301L4.586 10.5C4.211 10.875 4 11.384 4 11.914V20.5H9.5Z" stroke-width="1.5" stroke-linecap="round" stroke-linejoin="round"></path>
  </symbol>
  <symbol xmlns="http://www.w3.org/2000/svg" viewBox="0 0 24 24" id="ic_phone">
    <path fill-rule="evenodd" clip-rule="evenodd" d="M10.8561 13.144C9.68615 11.974 8.80415 10.664 8.21815 9.33499C8.09415 9.05399 8.16715 8.72499 8.38415 8.50799L9.20315 7.68999C9.87415 7.01899 9.87415 6.06999 9.28815 5.48399L8.11415 4.30999C7.33315 3.52899 6.06715 3.52899 5.28615 4.30999L4.63415 4.96199C3.89315 5.70299 3.58415 6.77199 3.78415 7.83199C4.27815 10.445 5.79615 13.306 8.24515 15.755C10.6941 18.204 13.5551 19.722 16.1681 20.216C17.2281 20.416 18.2971 20.107 19.0381 19.366L19.6891 18.715C20.4701 17.934 20.4701 16.668 19.6891 15.887L18.5161 14.714C17.9301 14.128 16.9801 14.128 16.3951 14.714L15.4921 15.618C15.2751 15.835 14.9461 15.908 14.6651 15.784C13.3361 15.197 12.0261 14.314 10.8561 13.144Z" stroke-width="1.5" stroke-linecap="round" stroke-linejoin="round"></path>
  </symbol>
  <symbol xmlns="http://www.w3.org/2000/svg" viewBox="0 0 32 32" id="ic_play">
    <path fill-rule="evenodd" clip-rule="evenodd" d="M10.3991 6.89619L23.2311 14.6348C24.2563 15.2527 24.2563 16.7482 23.2311 17.3661L10.3991 25.1047C9.34373 25.7402 8 24.9757 8 23.7382V8.26107C8 7.0236 9.34373 6.25914 10.3991 6.89619Z" stroke-width="1.5" stroke-linecap="round" stroke-linejoin="round"></path>
  </symbol>
  <symbol xmlns="http://www.w3.org/2000/svg" viewBox="0 0 24 24" id="ic_profile">
    <path d="M14.4749 4.52513C15.8417 5.89197 15.8417 8.10804 14.4749 9.47488C13.108 10.8417 10.892 10.8417 9.52513 9.47488C8.15829 8.10804 8.15829 5.89197 9.52513 4.52513C10.892 3.15829 13.108 3.15829 14.4749 4.52513" stroke-width="1.5" stroke-linecap="round" stroke-linejoin="round"></path>
    <path fill-rule="evenodd" clip-rule="evenodd" d="M4 18.5V19.5C4 20.052 4.448 20.5 5 20.5H19C19.552 20.5 20 20.052 20 19.5V18.5C20 15.474 16.048 13.508 12 13.508C7.952 13.508 4 15.474 4 18.5Z" stroke-width="1.5" stroke-linecap="round" stroke-linejoin="round"></path>
  </symbol>
  <symbol xmlns="http://www.w3.org/2000/svg" viewBox="0 0 24 24" id="ic_profilecard">
    <path d="M10.091 8.15901C10.9697 9.03769 10.9697 10.4623 10.091 11.341C9.21231 12.2197 7.78769 12.2197 6.90901 11.341C6.03033 10.4623 6.03033 9.03769 6.90901 8.15901C7.78769 7.28033 9.21231 7.28033 10.091 8.15901" stroke-width="1.5" stroke-linecap="round" stroke-linejoin="round"></path>
    <path fill-rule="evenodd" clip-rule="evenodd" d="M2 18.5V5.541C2 4.414 2.914 3.5 4.041 3.5H20C21.105 3.5 22 4.395 22 5.5V18.5C22 19.605 21.105 20.5 20 20.5H4C2.895 20.5 2 19.605 2 18.5Z" stroke-width="1.5" stroke-linecap="round" stroke-linejoin="round"></path>
    <path d="M15 9.5H19" stroke-width="1.5" stroke-linecap="round" stroke-linejoin="round"></path>
    <path d="M17.4 13.5H15" stroke-width="1.5" stroke-linecap="round" stroke-linejoin="round"></path>
    <path d="M12.0948 16.5C11.9198 16.061 11.6498 15.667 11.3028 15.346V15.346C10.7158 14.802 9.94579 14.5 9.14579 14.5H7.85379C7.05379 14.5 6.28379 14.802 5.69679 15.346V15.346C5.34979 15.667 5.07979 16.061 4.90479 16.5" stroke-width="1.5" stroke-linecap="round" stroke-linejoin="round"></path>
  </symbol>
  <symbol xmlns="http://www.w3.org/2000/svg" viewBox="0 0 24 24" id="ic_receipt">
    <path d="M13 5H8" stroke-width="1.5" stroke-linecap="round" stroke-linejoin="round" />
    <path d="M8 9H13" stroke-width="1.5" stroke-linecap="round" stroke-linejoin="round" />
    <path d="M8 13H13" stroke-width="1.5" stroke-linecap="round" stroke-linejoin="round" />
    <path fill-rule="evenodd" clip-rule="evenodd" d="M1 2.778V17.5C1 18.243 1.782 18.727 2.447 18.394L3.218 18.008C3.5 17.867 3.831 17.867 4.112 18.008L5.885 18.894C6.166 19.035 6.498 19.035 6.779 18.894L8.552 18.008C8.833 17.867 9.165 17.867 9.446 18.008L11.219 18.894C11.501 19.035 11.832 19.035 12.114 18.894L13.885 18.008C14.167 17.867 14.498 17.867 14.78 18.008L15.552 18.394C16.218 18.727 17 18.243 17 17.5V2.778C17 1.796 16.204 1 15.222 1H2.778C1.796 1 1 1.796 1 2.778Z" stroke-width="1.5" stroke-linecap="round" stroke-linejoin="round" />
    <path d="M4.87401 4.875C4.80601 4.875 4.74901 4.931 4.75001 5C4.75001 5.069 4.80601 5.125 4.87501 5.125C4.94401 5.125 5.00001 5.069 5.00001 5C5.00001 4.931 4.94401 4.875 4.87401 4.875" stroke-width="1.5" stroke-linecap="round" stroke-linejoin="round" />
    <path d="M4.87401 8.875C4.80501 8.875 4.74901 8.931 4.75001 9C4.75001 9.069 4.80601 9.125 4.87501 9.125C4.94401 9.125 5.00001 9.069 5.00001 9C5.00001 8.931 4.94401 8.875 4.87401 8.875" stroke-width="1.5" stroke-linecap="round" stroke-linejoin="round" />
    <path d="M4.87401 12.875C4.80501 12.875 4.74901 12.931 4.75001 13C4.75001 13.069 4.80601 13.125 4.87501 13.125C4.94401 13.125 5.00001 13.069 5.00001 13C5.00001 12.931 4.94401 12.875 4.87401 12.875" stroke-width="1.5" stroke-linecap="round" stroke-linejoin="round" />
  </symbol>
  <symbol xmlns="http://www.w3.org/2000/svg" viewBox="0 0 24 24" id="message">
    <path d="M7.07783 21.808C9.78583 21.808 11.9818 19.612 11.9818 16.904C11.9818 14.196 9.78683 12 7.07783 12C4.36883 12 2.17383 14.196 2.17383 16.904" stroke-width="1.5" stroke-linecap="round" stroke-linejoin="round"></path>
    <path d="M7.083 21.813C6.345 21.813 5.646 21.65 5.018 21.359L2 22L2.631 18.976C2.338 18.346 2.174 17.644 2.174 16.904" stroke-width="1.5" stroke-linecap="round" stroke-linejoin="round"></path>
    <path d="M6.557 12.028C6.199 11.207 6 10.312 6 9.373C6 5.356 9.598 2.133 14 2.133C18.402 2.133 22 5.356 22 9.373C22 11.747 20.738 13.837 18.801 15.155C18.802 15.911 18.8 16.93 18.8 18L15.661 16.454C15.124 16.557 14.569 16.613 14 16.613C13.293 16.613 12.607 16.529 11.953 16.372" stroke-width="1.5" stroke-linecap="round" stroke-linejoin="round"></path>
  </symbol>
  <symbol xmlns="http://www.w3.org/2000/svg" viewBox="0 0 32 32" id="pause">
    <path fill-rule="evenodd" clip-rule="evenodd" d="M21.3335 24C20.2295 24 19.3335 23.104 19.3335 22V10C19.3335 8.896 20.2295 8 21.3335 8C22.4375 8 23.3335 8.896 23.3335 10V22C23.3335 23.104 22.4375 24 21.3335 24Z" stroke-width="1.5" stroke-linecap="round" stroke-linejoin="round"></path>
    <path fill-rule="evenodd" clip-rule="evenodd" d="M10.6665 24C9.5625 24 8.6665 23.104 8.6665 22V10C8.6665 8.896 9.5625 8 10.6665 8C11.7705 8 12.6665 8.896 12.6665 10V22C12.6665 23.104 11.7705 24 10.6665 24Z" stroke-width="1.5" stroke-linecap="round" stroke-linejoin="round"></path>
  </symbol>
  <symbol xmlns="http://www.w3.org/2000/svg" viewBox="0 0 20 20" id="pen">
    <path d="M14.6169 8.43333L11.5669 5.38333" stroke-width="1.5" stroke-linecap="round" stroke-linejoin="round"></path>
    <path fill-rule="evenodd" clip-rule="evenodd" d="M5.20917 17.5H2.5V14.7908C2.5 14.57 2.5875 14.3575 2.74417 14.2017L13.8558 3.08916C14.1817 2.76333 14.7092 2.76333 15.0342 3.08916L16.91 4.965C17.2358 5.29083 17.2358 5.81833 16.91 6.14333L5.79833 17.2558C5.6425 17.4125 5.43 17.5 5.20917 17.5V17.5Z" stroke-width="1.5" stroke-linecap="round" stroke-linejoin="round"></path>
  </symbol>
  <symbol xmlns="http://www.w3.org/2000/svg" viewBox="0 0 24 24" id="plus">
    <path d="M12 8V16" stroke-width="1.5" stroke-linecap="round" stroke-linejoin="round"></path>
    <path d="M16 12H8" stroke-width="1.5" stroke-linecap="round" stroke-linejoin="round"></path>
    <path fill-rule="evenodd" clip-rule="evenodd" d="M12 21V21C7.029 21 3 16.971 3 12V12C3 7.029 7.029 3 12 3V3C16.971 3 21 7.029 21 12V12C21 16.971 16.971 21 12 21Z" stroke-width="1.5" stroke-linecap="round" stroke-linejoin="round"></path>
  </symbol>
  <symbol xmlns="http://www.w3.org/2000/svg" viewBox="0 0 24 24" id="send">
    <path fill-rule="evenodd" clip-rule="evenodd" d="M8.75377 12.149L10.5248 20.118C10.7458 21.111 12.0648 21.325 12.5878 20.453L20.8368 6.704C21.2878 5.954 20.7478 5 19.8728 5H4.32177C3.31877 5 2.81677 6.212 3.52577 6.921L8.75377 12.149Z" stroke-width="1.5" stroke-linecap="round" stroke-linejoin="round"></path>
    <path d="M20.84 5.56L8.75 12.15" stroke-width="1.5" stroke-linecap="round" stroke-linejoin="round"></path>
  </symbol>
  <symbol xmlns="http://www.w3.org/2000/svg" viewBox="0 0 24 24" id="status">
    <path d="M13.8791 8.375L8.39309 13.861C7.56709 14.687 7.56709 16.027 8.39309 16.853V16.853C9.21909 17.679 10.5591 17.679 11.3851 16.853L18.6171 9.621C20.1321 8.106 20.1321 5.65 18.6171 4.135V4.135C17.1021 2.62 14.6461 2.62 13.1311 4.135L5.89909 11.367C3.69509 13.571 3.69509 17.143 5.89909 19.347V19.347C8.10309 21.551 11.6751 21.551 13.8791 19.347L18.2681 14.958" stroke-width="1.5" stroke-linecap="round" stroke-linejoin="round"></path>
  </symbol>
  <symbol xmlns="http://www.w3.org/2000/svg" viewBox="0 0 24 24" id="exit-log-out-arrow">
    <path d="M18.0024 15.0012V18.0025C18.0024 19.66 16.6587 21.0037 15.0012 21.0037H5.99744C4.3399 21.0037 2.99619 19.66 2.99619 18.0025V5.9975C2.99619 4.33995 4.3399 2.99625 5.99744 2.99625H15.0012C16.6587 2.99625 18.0024 4.33995 18.0024 5.9975V8.99875" stroke-width="1.5" stroke-linecap="round" stroke-linejoin="round"></path>
    <path d="M12 15.0012L8.99875 12L12 8.99875" stroke-width="1.5" stroke-linecap="round" stroke-linejoin="round"></path>
    <path d="M21.0034 12H8.99842" stroke-width="1.5" stroke-linecap="round" stroke-linejoin="round"></path>
  </symbol>
  <symbol xmlns="http://www.w3.org/2000/svg" viewBox="0 0 24 24" id="ic_arrow">
    <path d="M10 16L14 12L10 8" stroke-width="1.5" stroke-linecap="round" stroke-linejoin="round"></path>
  </symbol>
  <symbol xmlns="http://www.w3.org/2000/svg" viewBox="0 0 24 24" id="ic_arrowback">
    <path d="M5.3335 12.0476H18.5335" stroke-width="1.5" stroke-linecap="round" stroke-linejoin="round"></path>
    <path d="M10.0478 7.33334L5.3335 12.0476" stroke-width="1.5" stroke-linecap="round" stroke-linejoin="round"></path>
    <path d="M10.0478 16.7619L5.3335 12.0476" stroke-width="1.5" stroke-linecap="round" stroke-linejoin="round"></path>
  </symbol>
  <symbol xmlns="http://www.w3.org/2000/svg" viewBox="0 0 24 24" id="ic_arrows">
    <path d="M18.0002 6.00024L14 10" stroke-width="1.5" stroke-linecap="round" stroke-linejoin="round"></path>
    <path d="M18 10.5002H13.5V6.00024" stroke-width="1.5" stroke-linecap="round" stroke-linejoin="round"></path>
    <path d="M7 17L11 13" stroke-width="1.5" stroke-linecap="round" stroke-linejoin="round"></path>
    <path d="M7 12.5H11.5V17" stroke-width="1.5" stroke-linecap="round" stroke-linejoin="round"></path>
  </symbol>
  <symbol xmlns="http://www.w3.org/2000/svg" viewBox="0 0 24 24" id="ic_camera">
    <path d="M16 10.2925L19.4752 8.15032C19.7837 7.96012 20.171 7.95174 20.4875 8.12841C20.8039 8.30508 21 8.63915 21 9.00158V15.9984C21 16.3608 20.8039 16.6949 20.4875 16.8715C20.171 17.0482 19.7838 17.0398 19.4753 16.8497L16 14.7074" stroke-width="1.5" stroke-linecap="round" stroke-linejoin="round"></path>
    <rect x="3" y="5.99997" width="13" height="13" rx="3" stroke-width="1.5" stroke-linecap="round" stroke-linejoin="round"></rect>
  </symbol>
  <symbol xmlns="http://www.w3.org/2000/svg" viewBox="0 0 20 20" id="ic_check">
    <path d="M16.6668 5.41667L7.50016 14.5833L3.3335 10.4167" stroke-width="1.5" stroke-linecap="round" stroke-linejoin="round"></path>
  </symbol>
  <symbol xmlns="http://www.w3.org/2000/svg" viewBox="0 0 24 24" id="ic_copy">
    <rect x="6.99805" y="6.99805" width="14.0058" height="14.0058" rx="2" stroke-width="1.5" stroke-linecap="round" stroke-linejoin="round"></rect>
    <path d="M6.99825 17.0022H4.99742C3.89239 17.0022 2.99658 16.1064 2.99658 15.0014V4.9972C2.99658 3.89217 3.89239 2.99637 4.99742 2.99637H15.0016C16.1066 2.99637 17.0024 3.89217 17.0024 4.9972V6.99803" stroke-width="1.5" stroke-linecap="round" stroke-linejoin="round"></path>
  </symbol>
  <symbol xmlns="http://www.w3.org/2000/svg" viewBox="0 0 24 24" id="ic_close">
    <path d="M6 6L18 18" stroke-width="1.5" stroke-linecap="round" stroke-linejoin="round" />
    <path d="M18 6L6 18" stroke-width="1.5" stroke-linecap="round" stroke-linejoin="round" />
  </symbol>
  <symbol viewBox="0 0 22 22" xmlns="http://www.w3.org/2000/svg" id="ic_garage">
    <path d="M8.49854 13.5011H13.5006" stroke-width="1.5" stroke-linecap="round" stroke-linejoin="round" />
    <path d="M8.49854 16.002H13.5006" stroke-width="1.5" stroke-linecap="round" stroke-linejoin="round" />
    <path d="M3.49658 18.5032V9.36021C3.49658 8.75472 3.8251 8.1969 4.35444 7.90293L10.5954 4.43566C10.8471 4.29586 11.1531 4.29586 11.4049 4.43566L17.645 7.9021C18.1746 8.19621 18.503 8.75442 18.5028 9.36021V18.5032" stroke-width="1.5" stroke-linecap="round" stroke-linejoin="round" />
    <path d="M19.3367 18.5033H2.66309" stroke-width="1.5" stroke-linecap="round" stroke-linejoin="round" />
    <path d="M5.99805 18.5031V11.8337C5.99805 11.3733 6.3713 11 6.83173 11H15.1685C15.629 11 16.0022 11.3733 16.0022 11.8337V18.5031" stroke-width="1.5" stroke-linecap="round" stroke-linejoin="round" />
    <path d="M9.33252 8.49887H12.6672" stroke-width="1.5" stroke-linecap="round" stroke-linejoin="round" />
  </symbol>
  <symbol viewBox="0 0 25 24" xmlns="http://www.w3.org/2000/svg" id="ic_plus">
    <path d="M12.5 8V16" stroke-width="1.5" stroke-linecap="round" stroke-linejoin="round" />
    <path d="M16.5 12H8.5" stroke-width="1.5" stroke-linecap="round" stroke-linejoin="round" />
    <path fill-rule="evenodd" clip-rule="evenodd" d="M12.5 21V21C7.529 21 3.5 16.971 3.5 12V12C3.5 7.029 7.529 3 12.5 3V3C17.471 3 21.5 7.029 21.5 12V12C21.5 16.971 17.471 21 12.5 21Z" stroke-width="1.5" stroke-linecap="round" stroke-linejoin="round" />
  </symbol>
  <symbol viewBox="0 0 24 24" xmlns="http://www.w3.org/2000/svg" id="ic_search">
    <path d="M15.7138 6.8382C18.1647 9.28913 18.1647 13.2629 15.7138 15.7138C13.2629 18.1647 9.28913 18.1647 6.8382 15.7138C4.38727 13.2629 4.38727 9.28913 6.8382 6.8382C9.28913 4.38727 13.2629 4.38727 15.7138 6.8382" stroke-width="1.5" stroke-linecap="round" stroke-linejoin="round"/>
    <path d="M19 19L15.71 15.71" stroke-width="1.5" stroke-linecap="round" stroke-linejoin="round"/>
  </symbol>
  <symbol viewBox="0 0 48 48" fill="none" xmlns="http://www.w3.org/2000/svg" id="ic_play_desc">
    <path d="M0 24C0 10.7452 10.7452 0 24 0V0C37.2548 0 48 10.7452 48 24V24C48 37.2548 37.2548 48 24 48V48C10.7452 48 0 37.2548 0 24V24Z" fill="#F8F8F8"/>
    <path fill-rule="evenodd" clip-rule="evenodd" d="M19.7993 17.1721L29.4233 22.9761C30.1922 23.4395 30.1922 24.5611 29.4233 25.0246L19.7993 30.8285C19.0078 31.3051 18 30.7318 18 29.8037V18.1958C18 17.2677 19.0078 16.6944 19.7993 17.1721Z" fill="black" stroke="black" stroke-width="1.5" stroke-linecap="round" stroke-linejoin="round"/>
  </symbol>
  <symbol viewBox="0 0 48 48" fill="none" xmlns="http://www.w3.org/2000/svg" id="ic_pause">
    <path d="M0 24C0 10.7452 10.7452 0 24 0C37.2548 0 48 10.7452 48 24C48 37.2548 37.2548 48 24 48C10.7452 48 0 37.2548 0 24Z" fill="#F8F8F8"/>
    <path fill-rule="evenodd" clip-rule="evenodd" d="M28 30V30C27.172 30 26.5 29.328 26.5 28.5V19.5C26.5 18.672 27.172 18 28 18V18C28.828 18 29.5 18.672 29.5 19.5V28.5C29.5 29.328 28.828 30 28 30Z" stroke="black" stroke-width="1.5" stroke-linecap="round" stroke-linejoin="round"/>
    <path fill-rule="evenodd" clip-rule="evenodd" d="M20 30V30C19.172 30 18.5 29.328 18.5 28.5V19.5C18.5 18.672 19.172 18 20 18V18C20.828 18 21.5 18.672 21.5 19.5V28.5C21.5 29.328 20.828 30 20 30Z" stroke="black" stroke-width="1.5" stroke-linecap="round" stroke-linejoin="round"/>
  </symbol>
</svg>